<svg width="16" height="16" viewBox="0 0 16 16" fill="none" xmlns="http://www.w3.org/2000/svg">
<path d="M6.11367 2.58499C5.03436 2.7385 4.01128 3.16208 3.13932 3.81643C2.26737 4.47078 1.57476 5.33472 1.12574 6.32813C0.67672 7.32154 0.485822 8.41224 0.57075 9.49911C0.655679 10.586 1.01368 11.6338 1.61156 12.5454L0.525879 15.4737L4.16143 14.8164C5.09627 15.2742 6.12785 15.4995 7.16844 15.4731C8.20904 15.4467 9.22788 15.1695 10.1383 14.6649C11.0488 14.1603 11.8239 13.4432 12.3978 12.5748C12.9717 11.7064 13.3273 10.7122 13.4346 9.6768M8.99005 3.90371C8.65635 3.84566 8.65635 3.36662 8.99005 3.30857C10.199 3.09825 11.1605 2.17745 11.4229 0.978759L11.443 0.886875C11.5152 0.557077 11.9848 0.555024 12.0598 0.884179L12.0843 0.991258C12.3564 2.18429 13.3182 3.09732 14.5237 3.30705C14.8591 3.3654 14.8591 3.84688 14.5237 3.90523C13.3182 4.11496 12.3564 5.02799 12.0843 6.22102L12.0598 6.3281C11.9848 6.65726 11.5152 6.6552 11.443 6.32541L11.4229 6.23352C11.1605 5.03483 10.199 4.11403 8.99005 3.90371Z" stroke="black" stroke-linecap="round" stroke-linejoin="round"/>
</svg>
