
<svg width="25" height="25" viewBox="0 0 25 25" fill="none" xmlns="http://www.w3.org/2000/svg">
<path d="M12.8877 14.8926L12.1806 15.5997L12.8877 16.3068L13.5948 15.5997L12.8877 14.8926ZM13.8877 5.89258C13.8877 5.34029 13.44 4.89258 12.8877 4.89258C12.3354 4.89258 11.8877 5.34029 11.8877 5.89258L13.8877 5.89258ZM7.18059 10.5997L12.1806 15.5997L13.5948 14.1855L8.5948 9.18547L7.18059 10.5997ZM13.5948 15.5997L18.5948 10.5997L17.1806 9.18547L12.1806 14.1855L13.5948 15.5997ZM13.8877 14.8926L13.8877 5.89258L11.8877 5.89258L11.8877 14.8926L13.8877 14.8926Z" fill="#33363F"/>
<path d="M5.8877 16.8926L5.8877 17.8926C5.8877 18.9971 6.78313 19.8926 7.8877 19.8926L17.8877 19.8926C18.9923 19.8926 19.8877 18.9971 19.8877 17.8926V16.8926" stroke="#33363F" stroke-width="2"/>
</svg>
